HIERARCHY
ROOT Hips
{
     OFFSET 1.88212 96.90440 -13.34250
     CHANNELS 6 Xposition Yposition Zposition Zrotation Xrotation Yrotation
     JOINT Spine
     {
          OFFSET 0.00000 11.89050 0.00000
          CHANNELS 3 Zrotation Xrotation Yrotation
          JOINT Spine1
          {
               OFFSET -0.00000 25.65740 0.12766
               CHANNELS 3 Zrotation Xrotation Yrotation
               JOINT HEad
               {
                    OFFSET 0.00000 8.73416 0.01134
                    CHANNELS 3 Zrotation Xrotation Yrotation
                    End Site
                    {
                         OFFSET -0.29000 12.77420 2.51395
                    }
               }
               JOINT LeftShoulder1
               {
                    OFFSET 8.99000 -0.36225 -0.22000
                    CHANNELS 3 Zrotation Xrotation Yrotation
                    JOINT LeftArm
                    {
                         OFFSET 10.28270 -0.00338 0.32212
                         CHANNELS 3 Zrotation Xrotation Yrotation
                         JOINT LeftForeArm
                         {
                              OFFSET 32.76690 0.09914 -1.42434
                              CHANNELS 3 Zrotation Xrotation Yrotation
                              JOINT LeftHand
                              {
                                   OFFSET 27.56430 0.08536 1.02216
                                   CHANNELS 3 Zrotation Xrotation Yrotation
                                   End Site
                                   {
                                        OFFSET 16.74430 -0.60000 1.50291
                                   }
                              }
                         }
                    }
               }
               JOINT RightShoulder
               {
                    OFFSET -8.99000 -0.36225 -0.22000
                    CHANNELS 3 Zrotation Xrotation Yrotation
                    JOINT RightArm
                    {
                         OFFSET -10.28270 -0.00338 0.32212
                         CHANNELS 3 Zrotation Xrotation Yrotation
                         JOINT RightForeArm
                         {
                              OFFSET -32.89710 0.09914 -1.42434
                              CHANNELS 3 Zrotation Xrotation Yrotation
                              JOINT RightHand
                              {
                                   OFFSET -27.49210 0.08536 1.02216
                                   CHANNELS 3 Zrotation Xrotation Yrotation
                                   End Site
                                   {
                                        OFFSET -16.63120 -0.60000 1.50291
                                   }
                              }
                         }
                    }
               }
          }
     }
     JOINT LeftUpLeg
     {
          OFFSET 8.94580 -8.66707 0.10165
          CHANNELS 3 Zrotation Xrotation Yrotation
          JOINT LeftLeg
          {
               OFFSET 0.00000 -44.42270 1.37270
               CHANNELS 3 Zrotation Xrotation Yrotation
               JOINT LeftFoot
               {
                    OFFSET -0.25355 -42.09240 -1.46059
                    CHANNELS 3 Zrotation Xrotation Yrotation
                    JOINT LeftToes
                    {
                         OFFSET -0.04000 -4.41509 8.49910
                         CHANNELS 3 Zrotation Xrotation Yrotation
                         End Site
                         {
                              OFFSET 0.08000 -0.04745 9.77979
                         }
                    }
               }
          }
     }
     JOINT RightUpLeg
     {
          OFFSET -8.94580 -8.66707 0.10165
          CHANNELS 3 Zrotation Xrotation Yrotation
          JOINT RightLeg
          {
               OFFSET 0.00000 -44.42270 1.37270
               CHANNELS 3 Zrotation Xrotation Yrotation
               JOINT RightFoot
               {
                    OFFSET 0.25355 -42.09240 -1.46059
                    CHANNELS 3 Zrotation Xrotation Yrotation
                    JOINT RightToes
                    {
                         OFFSET 0.04000 -4.41509 8.49910
                         CHANNELS 3 Zrotation Xrotation Yrotation
                         End Site
                         {
                              OFFSET -0.08000 -0.13745 9.77979
                         }
                    }
               }
          }
     }
}
MOTION
Frames: 13
Frame Time: 0.01667
41.51464 92.83061 -118.52548 2.32698 0.91353 -18.58408 -1.15709 4.66904 7.67987 -0.04404 0.07311 0.02889 -9.99477 11.34688 11.33622 -21.05802 24.14968 17.41713 -116.75915 -43.77377 -126.20625 -26.40722 45.61143 -91.51725 8.42397 5.48668 0.72422 -8.72051 21.92340 17.92353 99.79957 -20.96044 88.34793 54.95457 53.10611 78.12285 -3.85458 7.71551 2.01070 15.80325 -16.63841 -1.42206 -4.46780 19.11889 7.48061 25.03280 -0.02865 0.08744 -44.87965 -14.12285 -5.85635 -7.40925 11.37082 -16.83589 -6.22642 15.39123 6.51327 1.72568 -0.01739 -0.00143 -0.14012 -32.45778 -5.59282 
40.87786 90.65788 -118.89038 3.58268 -0.02762 -15.13132 -6.12130 9.52427 7.79162 -0.03888 0.06485 0.01840 -8.66075 10.38156 11.64995 -17.20012 21.25354 13.55955 -116.92500 -42.75260 -125.56678 -32.83138 43.69016 -85.53222 6.09847 9.47663 -1.64412 -16.92757 25.05842 21.08115 105.81645 -21.53287 91.27933 50.71927 54.64935 87.62389 -8.19189 12.55552 4.48666 13.00021 -21.34244 -2.47687 -2.99236 25.69668 6.54597 28.12810 -0.02049 0.07807 -49.38887 -15.09141 -7.86046 -8.54306 7.73491 -18.68278 -8.10595 25.23781 4.55589 2.44767 -0.04434 0.04840 -0.19528 -36.24175 -5.30296 
40.16479 88.17333 -119.52612 4.77536 -0.89171 -12.03189 -11.19286 15.01096 8.82537 -0.03569 0.06143 0.01065 -7.61768 9.59766 12.65767 -13.62973 18.08737 10.02377 -117.24738 -41.45011 -124.97831 -36.47491 43.28683 -82.82410 4.96674 11.61430 -2.66022 -12.25780 21.61444 16.74952 101.44385 -21.78248 86.17474 47.11062 55.35701 94.27572 -6.40861 12.79430 1.50351 10.19440 -26.34514 -2.47651 -0.35306 32.84770 3.82621 31.05767 -0.00920 0.07363 -53.90513 -16.30465 -9.73123 -10.03860 3.11269 -19.57426 -10.44188 37.52776 3.41082 3.61859 -0.00848 0.06753 -2.60368 -24.88322 -12.53977 
39.36153 85.41243 -120.44790 5.93798 -1.66724 -9.24308 -16.47237 20.92100 10.75203 -0.03008 0.05899 0.00247 -6.98935 8.87208 14.39993 -9.82670 14.73951 6.87802 -119.94968 -38.69526 -121.94405 -36.84747 47.36103 -84.31188 12.48879 -2.29515 7.70270 -7.75890 17.95312 12.88026 98.54124 -21.79192 83.04874 44.32820 55.73528 98.90530 -8.56104 14.19215 2.75710 7.50635 -31.57374 -1.43315 4.11715 40.25504 -1.26218 33.83068 0.00254 0.06927 -58.49446 -17.79422 -11.53533 -11.82655 -2.41515 -19.67073 -13.48774 50.31031 4.22680 4.82957 -0.06896 0.07866 -1.25351 -37.59659 -8.69792 
38.39254 82.08531 -121.67842 7.09818 -2.31481 -6.69578 -22.07142 27.08858 13.50399 -0.02189 0.05929 -0.00651 -6.12067 7.14775 15.70403 -11.91169 21.62162 7.55257 -124.18085 -28.65731 -126.87565 -41.23623 50.64986 -81.53152 5.13497 13.57020 -3.08782 -9.49698 24.31902 14.36365 101.56002 -22.83622 88.77803 42.92151 55.89167 101.07304 -7.06130 2.09241 -8.12129 5.14237 -37.11364 0.66728 11.30264 47.39410 -9.60382 36.47931 0.01200 0.06281 -63.14463 -19.52921 -13.33217 -13.76851 -8.63159 -19.10303 -19.96490 64.32730 9.64278 7.10996 -0.03526 0.13871 -6.87395 -24.05259 -5.66771 
37.35680 78.66244 -123.08611 8.26925 -2.80021 -4.37799 -28.16415 33.32997 17.14791 -0.01457 0.05843 -0.01018 -5.11970 4.49663 16.62311 -7.84885 17.16504 4.21288 -125.92793 -27.36168 -122.75911 -44.03098 53.39202 -79.89854 14.80619 -3.90209 13.81539 -4.30063 19.68461 10.38665 97.42905 -23.01961 83.31844 48.10760 55.31105 94.84528 -9.05890 17.01858 6.56556 3.28754 -42.94160 3.92944 22.46240 53.37300 -22.41938 38.85818 0.01849 0.05020 -67.72775 -21.25032 -14.99766 -15.62684 -15.18330 -17.84247 -40.19707 77.28699 30.09651 10.63763 -0.05787 0.21626 -9.71639 -34.71794 -10.75286 
36.23235 75.14014 -124.57067 9.41368 -3.11833 -2.29145 -34.86304 39.44956 21.78455 -0.00582 0.05493 -0.01222 -4.13456 1.05706 17.21120 -4.48266 12.55678 1.45153 -127.07957 -26.56848 -119.82344 -45.60151 55.93107 -79.49715 12.84997 7.73021 3.86877 0.22117 14.82653 7.36414 94.58347 -23.17601 79.60426 50.17427 55.38364 92.86231 -7.92631 -2.07783 -8.67297 1.77020 -48.18793 7.22836 35.71704 56.72650 -37.29876 41.22945 0.02100 0.03705 -72.04387 -22.70638 -16.38894 -17.51781 -21.92539 -15.88189 -85.46862 82.92731 75.84780 0.79959 0.04646 -0.10939 -9.58832 -26.90210 -2.58474 
35.06744 71.59331 -126.04182 10.49160 -3.26357 -0.45796 -41.73970 45.04010 27.15323 0.00341 0.05557 -0.01248 -3.55869 -2.65053 17.51697 -1.61180 8.22391 -0.64795 -128.09462 -25.94477 -117.87698 -46.46628 57.52724 -79.43017 12.03152 2.74593 8.85490 3.87440 10.22854 5.12576 92.60822 -23.35803 77.05400 50.46935 56.00304 93.18789 -13.92417 7.93235 -1.73340 0.57056 -52.89180 10.52234 48.73242 57.53027 -51.92650 43.64903 0.01852 0.02300 -75.99529 -23.72225 -17.34284 -18.97532 -28.39695 -12.98249 -142.41824 80.41790 133.04492 -7.78647 0.16116 -0.02460 6.22987 -32.30791 -10.32077 
33.90504 68.10057 -127.40965 11.45097 -3.25776 1.12881 -48.74550 50.15810 33.16286 0.01378 0.05642 -0.01101 -3.49161 -6.54683 17.52768 0.71549 4.10447 -1.90142 -128.97711 -25.30231 -116.58807 -47.08646 58.34312 -79.54439 10.51253 9.01854 3.24345 6.58891 5.86832 3.52316 91.35734 -23.49260 75.52985 49.94884 56.47955 94.41012 -8.23569 4.16350 -3.54165 -0.29881 -57.07791 13.74811 59.46716 56.52782 -64.26823 46.04731 0.01269 0.00946 -79.48663 -24.32170 -17.82820 -20.19708 -34.63748 -9.19216 -151.64125 77.52312 142.50267 1.31711 -0.13405 -0.35180 -1.29362 -25.70326 -9.31601 
32.83376 64.83025 -128.67810 12.24032 -3.09421 2.42791 -55.75961 54.87145 39.67917 0.02598 0.05342 -0.01203 -4.07961 -10.54514 17.22556 2.63740 0.13279 -2.40676 -129.51266 -28.69885 -114.65187 -47.95551 56.65896 -78.83279 9.62381 5.74805 1.82953 10.06806 12.04718 7.89008 93.04319 -29.07491 86.28040 49.25488 56.67952 96.03670 -12.02616 9.22763 -0.22435 -0.81430 -60.80245 16.86733 67.26895 54.60931 -73.63176 48.33625 0.00568 -0.00222 -82.46947 -24.56158 -17.85779 -20.65438 -40.56527 -4.17996 -162.97562 74.18356 152.48621 -0.94475 -0.12520 0.00603 6.76745 -24.63596 -11.23543 
31.91157 61.78860 -129.87553 12.87328 -2.76949 3.41771 -61.50953 58.27230 45.28151 0.01785 -0.04076 -0.02634 -5.03190 -13.32665 16.94974 3.83372 -2.42177 -2.35729 -129.83882 -30.42740 -113.52892 -48.68240 55.53448 -78.71112 8.33511 9.10119 -3.52668 11.31534 8.14014 6.54290 92.00226 -28.55097 84.57986 48.28088 56.72731 97.67653 -8.51458 6.85764 -1.94715 -1.03042 -64.18064 19.81292 72.60519 52.46236 -80.42912 50.40775 -0.00072 -0.01061 -84.90860 -24.52867 -17.49681 -20.18188 -45.81569 2.17472 -175.11609 70.10607 162.77979 -3.75674 -0.06264 0.04303 13.65340 -23.40760 -10.09145 
31.07354 58.55968 -130.96680 13.39142 -2.30597 4.09093 -65.57388 60.73964 49.39008 0.01755 -0.03394 -0.02207 -6.24910 -15.25798 16.71292 4.76418 -3.94356 -2.34199 -130.11987 -35.59649 -111.96421 -49.81542 54.24527 -82.42184 4.39348 12.42242 16.54752 12.36404 5.45520 5.76907 90.72781 -28.12284 83.28304 47.01012 56.52807 99.14747 -10.78624 9.81039 -0.66837 -0.75129 -67.38774 21.69790 76.23849 51.37546 -85.31425 51.94879 -0.00350 -0.01237 -86.80997 -24.55215 -16.91349 -19.09710 -50.32197 9.45592 -184.97212 65.44777 170.75792 -6.82599 -0.07378 0.01737 22.10972 -40.68486 -12.76060 
30.35984 55.55621 -131.92204 13.81928 -1.74104 4.47605 -67.78083 62.55140 51.71431 0.01322 -0.02539 -0.01973 -6.23800 -17.13902 16.41586 4.97475 -4.65552 -2.48101 -130.32849 -38.90004 -111.00881 -50.26926 53.68666 -84.80481 5.07416 9.52524 7.17680 12.99526 3.70676 5.27109 89.45465 -27.59354 82.15270 45.51914 56.17420 100.46174 -8.43705 8.46213 -1.65109 -0.14621 -70.55867 22.51767 79.29077 51.27098 -89.31008 52.75857 -0.00292 -0.00979 -88.16031 -24.62562 -16.31360 -17.88471 -54.31953 16.93539 -190.24278 62.59112 175.46185 4.88891 0.09902 -0.18447 9.72175 -49.52910 -12.30488 
